Coordinates
version=1
nRows=15
nColumns=34
inDegrees=yes

Units are S.I. units (second, meters, Newtons, ...)
If the header above contains a line with 'inDegrees', this indicates whether rotational values are in degrees (yes) or radians (no).

endheader
time	pelvis_tilt	pelvis_list	pelvis_rotation	pelvis_tx	pelvis_ty	pelvis_tz	hip_flexion_r	hip_adduction_r	hip_rotation_r	knee_angle_r	ankle_angle_r	subtalar_angle_r	mtp_angle_r	hip_flexion_l	hip_adduction_l	hip_rotation_l	knee_angle_l	ankle_angle_l	subtalar_angle_l	mtp_angle_l	lumbar_extension	lumbar_bending	lumbar_rotation	arm_flex_r	arm_add_r	arm_rot_r	elbow_flex_r	pro_sup_r	arm_flex_l	arm_add_l	arm_rot_l	elbow_flex_l	pro_sup_l
     30.00000000	     40.49118848	    -20.98762306	    159.54599430	      0.17078648	      0.83624083	     -0.21305196	     31.85769448	     -4.18716610	     -1.04512068	     65.01875263	      0.00000000	      0.00000000	      0.00000000	     29.93674319	     -4.69105840	     -7.53850252	     66.39236821	      0.00000000	      0.00000000	      0.00000000	    -23.62161501	      1.54897808	     -6.06004680	      0.00000000	      0.00000000	      0.00000000	      0.00000000	      0.00000000	      0.00000000	      0.00000000	      0.00000000	      0.00000000	      0.00000000
     30.01666670	     40.68022614	    -21.08979613	    159.63805348	      0.16964211	      0.83517277	     -0.21370223	     31.92713443	     -4.19858469	     -0.97382106	     64.91676728	      0.00000000	      0.00000000	      0.00000000	     29.89566149	     -4.66320625	     -7.61259709	     66.18080253	      0.00000000	      0.00000000	      0.00000000	    -23.69971859	      1.48760822	     -6.07215860	      0.00000000	      0.00000000	      0.00000000	      0.00000000	      0.00000000	      0.00000000	      0.00000000	      0.00000000	      0.00000000	      0.00000000
     30.03333330	     40.93170439	    -21.40397476	    159.62567767	      0.16874255	      0.83396995	     -0.21443472	     32.24376923	     -4.34078532	     -0.73048304	     64.88046263	      0.00000000	      0.00000000	      0.00000000	     29.86937436	     -4.50929478	     -7.88410036	     65.79667876	      0.00000000	      0.00000000	      0.00000000	    -23.45576285	      1.11120682	     -6.16193478	      0.00000000	      0.00000000	      0.00000000	      0.00000000	      0.00000000	      0.00000000	      0.00000000	      0.00000000	      0.00000000	      0.00000000
     30.05000000	     41.14188686	    -21.46624767	    159.73324307	      0.16782574	      0.83359908	     -0.21502268	     32.32729603	     -4.32232463	     -0.74960455	     64.61327509	      0.00000000	      0.00000000	      0.00000000	     29.81310088	     -4.54202953	     -7.93727329	     65.44818566	      0.00000000	      0.00000000	      0.00000000	    -23.51555952	      1.11258764	     -6.16697002	      0.00000000	      0.00000000	      0.00000000	      0.00000000	      0.00000000	      0.00000000	      0.00000000	      0.00000000	      0.00000000	      0.00000000
     30.06666670	     41.30421848	    -21.50088570	    159.90182050	      0.16694674	      0.83327749	     -0.21555479	     32.36971834	     -4.28728233	     -0.74508896	     64.46696149	      0.00000000	      0.00000000	      0.00000000	     29.77360091	     -4.58682097	     -7.98384284	     65.16323871	      0.00000000	      0.00000000	      0.00000000	    -23.58735241	      1.10376965	     -6.16785892	      0.00000000	      0.00000000	      0.00000000	      0.00000000	      0.00000000	      0.00000000	      0.00000000	      0.00000000	      0.00000000	      0.00000000
     30.08333330	     41.49378269	    -21.54713388	    160.01908658	      0.16598235	      0.83323337	     -0.21615696	     32.42569882	     -4.25555322	     -0.75888909	     64.22502182	      0.00000000	      0.00000000	      0.00000000	     29.75720494	     -4.60507712	     -8.00776612	     64.88829430	      0.00000000	      0.00000000	      0.00000000	    -23.68140332	      1.09404981	     -6.16921535	      0.00000000	      0.00000000	      0.00000000	      0.00000000	      0.00000000	      0.00000000	      0.00000000	      0.00000000	      0.00000000	      0.00000000
     30.10000000	     41.66321482	    -21.59369735	    160.14691300	      0.16500657	      0.83317537	     -0.21674923	     32.41974283	     -4.23448094	     -0.77598098	     63.95494422	      0.00000000	      0.00000000	      0.00000000	     29.78004815	     -4.59595930	     -7.99491808	     64.72587733	      0.00000000	      0.00000000	      0.00000000	    -23.74949912	      1.08366118	     -6.16619042	      0.00000000	      0.00000000	      0.00000000	      0.00000000	      0.00000000	      0.00000000	      0.00000000	      0.00000000	      0.00000000	      0.00000000
     30.11666670	     41.84220627	    -21.62168354	    160.30221500	      0.16414802	      0.83335264	     -0.21730537	     32.39640689	     -4.20188739	     -0.82448148	     63.67191897	      0.00000000	      0.00000000	      0.00000000	     29.83603110	     -4.60814014	     -7.99232036	     64.49522788	      0.00000000	      0.00000000	      0.00000000	    -23.88140586	      1.10075750	     -6.15346060	      0.00000000	      0.00000000	      0.00000000	      0.00000000	      0.00000000	      0.00000000	      0.00000000	      0.00000000	      0.00000000	      0.00000000
     30.13333330	     42.00769629	    -21.66204022	    160.47031206	      0.16324771	      0.83346027	     -0.21785768	     32.32006546	     -4.18554430	     -0.86375072	     63.31118247	      0.00000000	      0.00000000	      0.00000000	     29.93311380	     -4.58637478	     -7.98224314	     64.34501342	      0.00000000	      0.00000000	      0.00000000	    -24.05654356	      1.10709854	     -6.13408030	      0.00000000	      0.00000000	      0.00000000	      0.00000000	      0.00000000	      0.00000000	      0.00000000	      0.00000000	      0.00000000	      0.00000000
     30.15000000	     42.13538553	    -21.74624310	    160.67835053	      0.16243595	      0.83343885	     -0.21840666	     32.17172603	     -4.21649331	     -0.91083430	     62.86638393	      0.00000000	      0.00000000	      0.00000000	     30.09464488	     -4.50511491	     -7.94137248	     64.44328921	      0.00000000	      0.00000000	      0.00000000	    -24.28389097	      1.04394601	     -6.11459843	      0.00000000	      0.00000000	      0.00000000	      0.00000000	      0.00000000	      0.00000000	      0.00000000	      0.00000000	      0.00000000	      0.00000000
     30.16666670	     42.24485318	    -21.68632816	    161.04028653	      0.16148525	      0.83329470	     -0.21863801	     31.92962050	     -4.26489678	     -1.23033298	     62.55001952	      0.00000000	      0.00000000	      0.00000000	     30.17278187	     -4.43840308	     -7.63608867	     64.45103445	      0.00000000	      0.00000000	      0.00000000	    -24.59091195	      1.20030757	     -6.03789505	      0.00000000	      0.00000000	      0.00000000	      0.00000000	      0.00000000	      0.00000000	      0.00000000	      0.00000000	      0.00000000	      0.00000000
     30.18333330	     42.37645791	    -21.75549686	    161.22558278	      0.16084840	      0.83302273	     -0.21917489	     31.87290609	     -4.26389750	     -1.18978238	     62.38580479	      0.00000000	      0.00000000	      0.00000000	     30.27313952	     -4.40952431	     -7.70902502	     64.44633976	      0.00000000	      0.00000000	      0.00000000	    -24.77800022	      1.19799648	     -6.02768930	      0.00000000	      0.00000000	      0.00000000	      0.00000000	      0.00000000	      0.00000000	      0.00000000	      0.00000000	      0.00000000	      0.00000000
     30.20000000	     42.54210964	    -21.72761646	    161.50552582	      0.16014982	      0.83251718	     -0.21937029	     31.81910699	     -4.26913866	     -1.37788877	     62.24051845	      0.00000000	      0.00000000	      0.00000000	     30.43354723	     -4.33855716	     -7.41791756	     64.57223952	      0.00000000	      0.00000000	      0.00000000	    -25.09930729	      1.29483735	     -5.91457010	      0.00000000	      0.00000000	      0.00000000	      0.00000000	      0.00000000	      0.00000000	      0.00000000	      0.00000000	      0.00000000	      0.00000000
     30.21666670	     42.68247389	    -21.77827488	    161.67652679	      0.15935708	      0.83185145	     -0.21992899	     31.79014779	     -4.26836957	     -1.34838850	     62.17796405	      0.00000000	      0.00000000	      0.00000000	     30.46177678	     -4.33590696	     -7.44728306	     64.54059340	      0.00000000	      0.00000000	      0.00000000	    -25.22910991	      1.30185642	     -5.89527898	      0.00000000	      0.00000000	      0.00000000	      0.00000000	      0.00000000	      0.00000000	      0.00000000	      0.00000000	      0.00000000	      0.00000000
     30.23333330	     42.88361140	    -21.78954767	    161.93970931	      0.15845579	      0.83139385	     -0.22028366	     31.79574819	     -4.28692352	     -1.47554098	     62.04699972	      0.00000000	      0.00000000	      0.00000000	     30.61167799	     -4.24090394	     -7.13987498	     64.56678985	      0.00000000	      0.00000000	      0.00000000	    -25.44628265	      1.40149556	     -5.70609074	      0.00000000	      0.00000000	      0.00000000	      0.00000000	      0.00000000	      0.00000000	      0.00000000	      0.00000000	      0.00000000	      0.00000000
